PathFileType	4	(X/Y/Z)	C:\Users\Biomechanik\SynologyDrive\AlexP\Athlete_03\Athlete_3_25_03_31\Squat_bar_02\marker_experimental.trc
DataRate	CameraRate	NumFrames	NumMarkers	Units	OrigDataRate	OrigDataStartFrame	OrigNumFrames
200.000000	200.000000	4	55	mm	200.000000	0	522
Frame#	Time	BL			BR			GLAB			RFHD			LFHD			C7			T6			SPINMOL			SPINM2			SPINM3			T12			BELTOL			BELT2			BELT3			SACROL			SACR2			SACR3			LTHOL			LTH2			LTH3			LSHAOL			LSHA2			LSHA3			LHEE			LTOE			LM5			RTHOL			RTH2			RTH3			RSHAOL			RSHA2			RSHA3			RHEE			RTOE			RM5			STRN			XIPH			LACR			LUAOL			LUA2			LUA3			LLAOL			LLA2			LLA3			LWRR			LWRU			RACR			RUAOL			RUA2			RUA3			RLAOL			RLA2			RLA3			RWRR			RWRU			
		X1	Y1	Z1	X2	Y2	Z2	X3	Y3	Z3	X4	Y4	Z4	X5	Y5	Z5	X6	Y6	Z6	X7	Y7	Z7	X8	Y8	Z8	X9	Y9	Z9	X10	Y10	Z10	X11	Y11	Z11	X12	Y12	Z12	X13	Y13	Z13	X14	Y14	Z14	X15	Y15	Z15	X16	Y16	Z16	X17	Y17	Z17	X18	Y18	Z18	X19	Y19	Z19	X20	Y20	Z20	X21	Y21	Z21	X22	Y22	Z22	X23	Y23	Z23	X24	Y24	Z24	X25	Y25	Z25	X26	Y26	Z26	X27	Y27	Z27	X28	Y28	Z28	X29	Y29	Z29	X30	Y30	Z30	X31	Y31	Z31	X32	Y32	Z32	X33	Y33	Z33	X34	Y34	Z34	X35	Y35	Z35	X36	Y36	Z36	X37	Y37	Z37	X38	Y38	Z38	X39	Y39	Z39	X40	Y40	Z40	X41	Y41	Z41	X42	Y42	Z42	X43	Y43	Z43	X44	Y44	Z44	X45	Y45	Z45	X46	Y46	Z46	X47	Y47	Z47	X48	Y48	Z48	X49	Y49	Z49	X50	Y50	Z50	X51	Y51	Z51	X52	Y52	Z52	X53	Y53	Z53	X54	Y54	Z54	X55	Y55	Z55	

1	0	141.8653564453125	1357.217041015625	-2233.792724609375	175.1414947509766	1363.188110351562	-212.4688568115234	438.44384765625	1565.64599609375	-1186.860107421875	387.9470825195312	1589.836547851562	-1123.362182617188	394.8365478515625	1590.128784179688	-1258.910278320312	205.5200958251953	1431.181884765625	-1194.849487304688	112.8760528564453	1279.080810546875	-1206.261352539062	97.87921142578125	1244.68115234375	-1226.437133789062	90.20108032226562	1236.157348632812	-1177.21142578125	86.43568420410156	1180.828369140625	-1213.650634765625	84.09559631347656	1109.961181640625	-1215.688842773438	62.03894424438477	1074.485595703125	-1233.667602539062	61.49245834350586	1069.695678710938	-1183.492309570312	53.02854537963867	1011.194152832031	-1214.484008789062	44.09455871582031	940.7073364257814	-1240.012451171875	42.87436294555664	936.4544677734376	-1188.704223632812	32.78616333007812	878.6006469726564	-1219.14453125	130.2732696533203	681.0065307617189	-1430.286743164062	92.20317840576172	617.9472656250001	-1399.689575195312	133.8459320068359	619.0029907226564	-1427.652709960938	122.6610870361328	331.7339782714845	-1502.31689453125	86.47800445556641	261.4310913085939	-1492.511596679688	131.8426513671875	270.9573364257814	-1513.21826171875	107.4678649902344	68.70275115966805	-1469.784912109375	314.4642028808594	50.37331008911142	-1536.356079101562	240.7230072021484	27.05055809021006	-1618.239624023438	94.31112670898438	687.5512084960939	-1013.429504394531	140.2619476318359	639.1849975585939	-969.5869140625	105.1809921264648	627.6838378906251	-1003.233764648438	75.01335144042969	345.8117675781251	-934.2725830078125	108.0092544555664	284.0532226562501	-898.595947265625	71.26424407958984	283.5192260742188	-932.110107421875	87.68277740478516	62.53253555297857	-964.4541625976562	279.8685913085938	48.20716094970709	-870.8190307617188	191.7798309326172	37.84866714477544	-799.2884521484375	349.3414916992188	1298.360961914062	-1202.49951171875	346.4815673828125	1154.00439453125	-1201.49072265625	244.9796447753906	1396.08544921875	-1364.440795898438	142.3402252197266	1270.454833984375	-1453.580078125	98.93584442138672	1222.817993164062	-1440.623291015625	128.8498840332031	1212.044555664062	-1480.454956054688	106.1054382324219	1141.766845703125	-1548.318237304688	175.9769897460938	1142.964721679688	-1585.773681640625	144.7309265136719	1181.032958984375	-1575.618041992188	193.9836273193359	1264.611572265625	-1617.669799804688	203.8664398193359	1295.685546875	-1545.799072265625	259.7612609863281	1386.7607421875	-1035.811279296875	159.2675018310547	1260.862182617188	-955.7940063476561	139.4011688232422	1203.7626953125	-929.4946289062499	118.3095550537109	1213.87158203125	-975.8546142578124	143.3884124755859	1131.396240234375	-846.7604370117186	136.930419921875	1209.734375	-832.2911376953124	176.6666717529297	1178.68798828125	-823.8734130859374	201.5504302978516	1267.268798828125	-801.1954345703124	220.2262725830078	1303.9365234375	-870.1573486328124	
2	0.005	141.9128265380859	1357.274047851563	-2233.79052734375	175.2200622558594	1363.164306640625	-212.4727935791015	438.5210876464844	1565.630249023438	-1186.843017578125	388.0181884765625	1589.812744140625	-1123.35546875	394.9340209960938	1590.121704101562	-1258.919067382812	205.5996246337891	1431.188232421875	-1194.85009765625	112.9310531616211	1279.0908203125	-1206.273071289062	97.92207336425781	1244.695068359375	-1226.454223632812	90.20472717285156	1236.140991210938	-1177.241577148438	86.47556304931641	1180.840698242188	-1213.665771484375	84.16984558105469	1109.960083007812	-1215.707153320312	62.07024383544922	1074.508544921875	-1233.666748046875	61.53492736816406	1069.701904296875	-1183.513549804688	52.95710372924805	1011.233215332031	-1214.569580078125	44.11246871948242	940.7159423828126	-1240.03369140625	42.94043731689453	936.4608764648439	-1188.704345703125	32.81487655639648	878.6103515625001	-1219.165893554688	130.3161773681641	680.9963989257814	-1430.300659179688	92.22019195556641	617.9538574218751	-1399.705810546875	133.8744354248047	619.0070800781251	-1427.667358398438	122.6845550537109	331.7218322753907	-1502.324462890625	86.48491668701172	261.4330444335939	-1492.519287109375	131.8552856445312	270.9576110839845	-1513.22216796875	107.4678726196289	68.69866943359384	-1469.786376953125	314.4644470214844	50.37232208251962	-1536.355224609375	240.7177886962891	27.05548858642588	-1618.232421875	94.31396484375	687.5546875000001	-1013.433959960938	140.2670135498047	639.1834716796876	-969.593994140625	105.1843872070312	627.6868896484376	-1003.240478515625	75.00746917724609	345.8119201660157	-934.2846069335938	108.0018844604492	284.0502319335938	-898.604736328125	71.26144409179688	283.5196228027344	-932.12255859375	87.68251037597656	62.53031158447271	-964.4570922851562	279.8693542480469	48.20508956909185	-870.8153686523438	191.7801971435547	37.84682083129888	-799.2874145507812	349.3838806152344	1298.324951171875	-1202.504028320312	346.5142211914062	1153.977783203125	-1201.5	245.0443572998047	1396.081176757812	-1364.445678710938	142.3670501708984	1270.477172851562	-1453.576538085938	98.95195007324219	1222.851440429688	-1440.620361328125	128.8694152832031	1212.07666015625	-1480.453491210938	106.0951766967773	1141.805419921875	-1548.323120117188	175.9632110595703	1142.988037109375	-1585.7783203125	144.7275695800781	1181.061889648438	-1575.6240234375	194.0109710693359	1264.623291015625	-1617.672485351562	203.9002685546875	1295.692749023438	-1545.802490234375	259.8177490234375	1386.728271484375	-1035.814575195312	159.2703247070312	1260.869750976562	-955.8179321289061	139.3860321044922	1203.786987304688	-929.5170898437499	118.296501159668	1213.892700195312	-975.8861083984374	143.3492279052734	1131.40625	-846.7788085937499	136.9378356933594	1209.751220703125	-832.2960815429686	176.6435089111328	1178.680908203125	-823.8859863281249	201.5375823974609	1267.246337890625	-801.1995849609374	220.2395477294922	1303.901000976562	-870.1582641601561	
3	0.01	141.9674682617188	1357.3408203125	-2233.7890625	175.3101501464844	1363.138427734375	-212.4779968261718	438.6098937988281	1565.611206054688	-1186.825805664062	388.1010437011719	1589.784545898438	-1123.349243164062	395.042724609375	1590.112182617188	-1258.927490234375	205.6900787353516	1431.195922851562	-1194.851440429688	112.9946441650391	1279.1015625	-1206.286743164062	97.97056579589844	1244.710571289062	-1226.47412109375	90.21341705322266	1236.128173828125	-1177.274047851562	86.52007293701172	1180.854858398438	-1213.683349609375	84.25335693359375	1109.95849609375	-1215.727661132812	62.1058235168457	1074.533203125	-1233.666625976562	61.58243179321289	1069.708251953125	-1183.537963867188	52.8840446472168	1011.27490234375	-1214.661254882812	44.13329696655273	940.7253417968751	-1240.056884765625	43.00378799438477	936.4697265625001	-1188.7060546875	32.8477783203125	878.6209106445314	-1219.188842773438	130.3621520996094	680.9871826171876	-1430.316772460938	92.23878479003906	617.9625854492189	-1399.727416992188	133.9064788818359	619.0114746093751	-1427.68310546875	122.7084350585938	331.709930419922	-1502.333129882812	86.49229431152344	261.4351196289064	-1492.527099609375	131.8686981201172	270.958221435547	-1513.22607421875	107.4677352905273	68.69380950927743	-1469.787963867188	314.464599609375	50.3714256286622	-1536.3544921875	240.7116088867188	27.06135368347178	-1618.223754882812	94.31924438476562	687.5590820312501	-1013.438354492188	140.2743225097656	639.1818237304689	-969.60205078125	105.1899795532227	627.6907958984376	-1003.247985839844	75.00238037109375	345.8124084472657	-934.2970581054688	107.9945755004883	284.0467529296876	-898.614013671875	71.25984954833984	283.5202026367188	-932.13623046875	87.68215179443359	62.52782058715826	-964.4605102539062	279.8703308105469	48.2027206420899	-870.810791015625	191.7807006835938	37.84475326538091	-799.2861938476562	349.4324645996094	1298.2841796875	-1202.510375976562	346.5503540039062	1153.947875976562	-1201.511108398438	245.1188201904297	1396.076782226562	-1364.4521484375	142.3984985351562	1270.503295898438	-1453.57373046875	98.97084045410156	1222.890502929688	-1440.61865234375	128.8930358886719	1212.114501953125	-1480.452880859375	106.0841674804688	1141.850463867188	-1548.330810546875	175.94873046875	1143.016357421875	-1585.78515625	144.7244262695312	1181.096557617188	-1575.632446289062	194.0437774658203	1264.637939453125	-1617.675903320312	203.9394073486328	1295.702270507812	-1545.807495117188	259.8828125	1386.69140625	-1035.818603515625	159.27490234375	1260.87939453125	-955.8452148437499	139.3722229003906	1203.81591796875	-929.5422973632811	118.2832641601562	1213.9169921875	-975.9211425781249	143.3070526123047	1131.418823242188	-846.7990722656249	136.9457244873047	1209.772216796875	-832.3035888671874	176.6195220947266	1178.674194335938	-823.9011840820311	201.5277709960938	1267.222900390625	-801.2051391601561	220.2540283203125	1303.862182617188	-870.1596679687499	
4	0.015	142.0288696289062	1357.417358398438	-2233.788330078125	175.4109802246094	1363.11083984375	-212.4846191406249	438.7096252441406	1565.588500976562	-1186.808959960938	388.1954040527344	1589.752197265625	-1123.343872070312	395.160888671875	1590.099609375	-1258.934692382812	205.7904968261719	1431.205078125	-1194.85400390625	113.0664825439453	1279.11279296875	-1206.30224609375	98.02408599853516	1244.727661132812	-1226.496826171875	90.22776031494141	1236.1201171875	-1177.308715820312	86.56850433349609	1180.870483398438	-1213.702880859375	84.34487915039062	1109.956665039062	-1215.749877929688	62.14551544189453	1074.558837890625	-1233.667602539062	61.63415908813477	1069.714477539062	-1183.565673828125	52.81352233886719	1011.317687988281	-1214.755737304688	44.15703201293945	940.7352294921876	-1240.081298828125	43.06143569946289	936.4812011718751	-1188.70947265625	32.88454818725586	878.6320800781251	-1219.212890625	130.4103393554688	680.9794921875001	-1430.334838867188	92.25852203369141	617.9733886718751	-1399.754028320312	133.9415435791016	619.0158691406251	-1427.699584960938	122.7320861816406	331.6985778808595	-1502.342651367188	86.49990844726562	261.4373474121095	-1492.534912109375	131.8825225830078	270.9592285156251	-1513.229614257812	107.4674301147461	68.68819427490243	-1469.789794921875	314.464599609375	50.3706932067872	-1536.353759765625	240.7044830322266	27.06815338134776	-1618.213623046875	94.32755279541016	687.5645751953126	-1013.442260742188	140.2843017578125	639.1800537109376	-969.6109008789062	105.1982269287109	627.6957397460939	-1003.256103515625	74.99873352050781	345.8133239746094	-934.3093872070312	107.9878082275391	284.0428466796876	-898.623291015625	71.26004791259766	283.5209960937501	-932.150634765625	87.68173217773438	62.5251197814942	-964.46435546875	279.8715515136719	48.20008850097662	-870.8052978515625	191.7813720703125	37.84249877929692	-799.284912109375	349.4867858886719	1298.239135742188	-1202.519287109375	346.5892639160156	1153.915405273438	-1201.524169921875	245.2024688720703	1396.072387695312	-1364.46044921875	142.4344787597656	1270.533081054688	-1453.571899414062	98.99246978759766	1222.934814453125	-1440.618408203125	128.9209442138672	1212.158081054688	-1480.453491210938	106.0727157592773	1141.901977539062	-1548.341918945312	175.9340667724609	1143.049926757812	-1585.794677734375	144.7218017578125	1181.136840820312	-1575.643920898438	194.0821533203125	1264.65576171875	-1617.680297851562	203.9836578369141	1295.71484375	-1545.814208984375	259.9560241699219	1386.650512695312	-1035.823608398438	159.2816467285156	1260.891357421875	-955.8753662109374	139.3609313964844	1203.849365234375	-929.5700073242186	118.2705001831055	1213.9443359375	-975.9592895507811	143.2631530761719	1131.434326171875	-846.8207397460936	136.9542388916016	1209.797607421875	-832.3140258789061	176.5957489013672	1178.668334960938	-823.9187622070311	201.5220031738281	1267.199340820312	-801.2121582031249	220.26953125	1303.820922851562	-870.1618652343749	
